# xmcd
#
# Track frame offsets:
#	150
#	19878
#	42410
#	70495
#	90145
#	111277
#	131316
#	156976
#	175159
#	199723
#	214299
#	236524
#
# Disc length: 3445 seconds
#
# Revision: 0
# Processed by: cddbd v1.5.2PL0 Copyright (c) Steve Scherf et al.
# Submitted via: dBpowerAMP V4.0
#
DISCID=a20d730c
DTITLE=CARL WEATHERSBY - Looking Out My Window
DYEAR=1997
DGENRE=Blues
TTITLE0=If That Ain't The Blues
TTITLE1=Feel So Bad
TTITLE2=Looking Out My Window
TTITLE3=Do You Call That A Buddy
TTITLE4=Sweet Music
TTITLE5=Hipshakin' Woman
TTITLE6=The Blues Follow Me Around
TTITLE7=Merry Way
TTITLE8=The Whole Story
TTITLE9=Love Shock
TTITLE10=Feels Like Rain
TTITLE11=Standing At The Crossroads
EXTD=
EXTT0=
EXTT1=
EXTT2=
EXTT3=
EXTT4=
EXTT5=
EXTT6=
EXTT7=
EXTT8=
EXTT9=
EXTT10=
EXTT11=
PLAYORDER=
